<svg id="m-gray-logo" xmlns="http://www.w3.org/2000/svg" viewBox="0 0 120 28.916"><defs><style>.cls-1{fill:#595757}</style></defs><path class="cls-1" d="M676.94 354.41l.642-.138a.689.689 0 0 0 .765.689q.535-.015.566-.414.015-.29-.413-.443a4.616 4.616 0 0 0-.153-.046 4.616 4.616 0 0 0-.413-.122q-.917-.199-.887-.902.076-.826 1.162-.872 1.147-.015 1.33.902l-.657.122a.551.551 0 0 0-.627-.489q-.474.016-.505.337-.045.306.597.428a2.658 2.658 0 0 1 .688.23.911.911 0 0 1 .58.825q-.045.917-1.237.948a1.25 1.25 0 0 1-1.438-1.055zM682.036 354.043v-1.835h.672v1.835q0 .857.735.872.749 0 .749-.872v-1.835h.657v1.82a1.407 1.407 0 1 1-2.813.015zM690.235 355.404h-.688q-1.27-1.972-1.315-2.064a5.865 5.865 0 0 1-.184-.321q.015.138.015.566v1.82h-.626v-3.196h.718q1.223 1.957 1.284 2.049a1.37 1.37 0 0 1 .168.32h.016a4.635 4.635 0 0 1-.016-.488v-1.881h.628zM695.635 355.404h-.687q-1.27-1.972-1.315-2.064a5.865 5.865 0 0 1-.184-.321q.015.138.015.566v1.82h-.627v-3.196h.719q1.223 1.957 1.284 2.049a1.37 1.37 0 0 1 .168.32h.015a4.676 4.676 0 0 1-.015-.488v-1.881h.627zM697.871 352.208h.75q.642 1.025.703 1.117c.02.03.05.081.091.152a1.106 1.106 0 0 1 .077.154h.015q.046-.092.168-.291.077-.153.658-1.132h.764l-1.3 1.927v1.269h-.657v-1.254zM706.134 354.41l.642-.138a.689.689 0 0 0 .765.689q.535-.015.566-.414.015-.29-.414-.443a4.59 4.59 0 0 0-.152-.046 4.626 4.626 0 0 0-.413-.122q-.917-.199-.887-.902.076-.826 1.162-.872 1.147-.015 1.33.902l-.657.122a.551.551 0 0 0-.627-.489q-.474.016-.505.337-.046.306.597.428a2.658 2.658 0 0 1 .688.23.912.912 0 0 1 .58.825q-.045.917-1.238.948a1.25 1.25 0 0 1-1.437-1.055zM713.737 355.404h-2.508v-3.196h2.447v.55h-1.774v.75h1.667v.55h-1.667v.826h1.835zM719.03 355.404h-.855l-.826-1.254h-.489v1.254h-.672v-3.196h1.467q1.147.031 1.208.949a.882.882 0 0 1-.81.947zm-2.17-2.676v.918h.673q.641 0 .626-.46.015-.457-.626-.458zM724.141 352.208l-1.223 3.196h-.75l-1.238-3.196h.718l.795 2.294.108.32h.015a.227.227 0 0 1 .015-.06q.061-.184.092-.26l.75-2.294zM726.377 355.404v-3.196h.672v3.196zM732.373 353.141l-.626.153a.767.767 0 0 0-.734-.566q-.78.046-.826 1.086.045 1.024.84 1.1.627 0 .75-.733l.642.214a1.293 1.293 0 0 1-1.391 1.07q-1.468-.06-1.53-1.651a1.501 1.501 0 0 1 1.53-1.652 1.348 1.348 0 0 1 1.345.98zM737.3 355.404h-2.507v-3.196h2.447v.55h-1.774v.75h1.667v.55h-1.667v.826h1.834zM681.875 335.822a.946.946 0 0 0-.9-1.237h-2.628a1.112 1.112 0 0 0-1.112 1.112v12.124a.578.578 0 1 0 1.156 0v-1.797c.592-.005 1.497-.024 1.704-.059q1.885-.183 1.886-2.495a5.254 5.254 0 0 0-1.4-3.651zm-1.05 7.587q0 1.4-1.035 1.4h-1.4v-8.889a.24.24 0 0 1 .24-.24h1.72a.26.26 0 0 1 .249.338L679.364 340a5.1 5.1 0 0 1 1.461 3.408zM689.798 334.767h-6.018a.764.764 0 0 0-.764.764v12.098a.764.764 0 0 0 .77.764l6.019-.048a.764.764 0 0 0 .757-.764v-12.05a.764.764 0 0 0-.764-.764zm-.453 12.079a.374.374 0 0 1-.374.374h-4.364a.374.374 0 0 1-.374-.374v-5.263h5.112zm0-6.419h-5.112v-4.19a.374.374 0 0 1 .374-.374h4.364a.374.374 0 0 1 .374.374zM695.6 338.434a.596.596 0 0 0 .841.09l.09-.074a.594.594 0 0 0 .058-.86q-.472-.513-1.159-1.24-.505-.583-.86-.968a.593.593 0 0 0-.88.797q.94 1.054 1.91 2.255zM702.339 338.63a.615.615 0 0 0 .861-.056q1.1-1.23 2.079-2.338a.612.612 0 1 0-.923-.804l-.162.187q-1.11 1.296-1.905 2.1a.612.612 0 0 0 .03.893zM719.094 345.086l.024-.033a.534.534 0 0 0-.132-.761q-.774-.514-1.625-1.028a.535.535 0 1 0-.551.918q.78.474 1.538 1.018a.535.535 0 0 0 .746-.114zM711.661 343.264a.535.535 0 1 0-.551.918q.78.474 1.539 1.018a.535.535 0 0 0 .746-.115l.023-.032a.534.534 0 0 0-.132-.761q-.774-.514-1.625-1.028zM711.661 340.245a.535.535 0 1 0-.551.918q.78.474 1.539 1.017a.535.535 0 0 0 .746-.114l.023-.032a.534.534 0 0 0-.132-.761q-.774-.514-1.625-1.028zM718.348 342.18a.535.535 0 0 0 .746-.114l.024-.032a.534.534 0 0 0-.132-.761q-.774-.514-1.625-1.028a.535.535 0 1 0-.551.918q.78.474 1.538 1.017z" transform="translate(-617.77 -333.602)"/><path class="cls-1" d="M709.857 347.428l-.003-8.186a.457.457 0 0 1 .457-.458h4.168v8.733a.578.578 0 0 0 1.156 0v-8.733h4.168a.458.458 0 0 1 .457.458v7.027q.06.79-1.034.792h-1.156a.54.54 0 0 0-.523.68l.003.01a.542.542 0 0 0 .523.405h1.518q1.946-.061 1.886-1.765v-7.35a1.292 1.292 0 0 0-1.291-1.291h-4.55v-2.008h6.115a.578.578 0 0 0 0-1.157h-13.388a.578.578 0 0 0 0 1.157h6.116v2.008h-4.55a1.292 1.292 0 0 0-1.293 1.291v8.387a.61.61 0 0 0 .611.61.61.61 0 0 0 .61-.61zM707.1 347.456a.578.578 0 0 1-.578.578h-3.85q-1.947 0-1.946-1.826v-4.99h-2.983c0 .122-.005.616-.028.97-.077 2.773-1.557 4.781-4.374 6.019a.63.63 0 0 1-.758-.213l-.01-.014a.635.635 0 0 1 .273-.96c2.335-.98 3.412-2.126 3.601-4.89.014-.204.02-.505.02-.912h-3.622a.578.578 0 0 1 0-1.156h6.055v-5.598a.609.609 0 0 1 1.218 0v5.598h6.115a.578.578 0 0 1 0 1.156h-4.29v4.747q0 .913 1.096.913h3.483a.578.578 0 0 1 .578.578zM728.725 337.567h-2.507a.346.346 0 1 0 0 .675h2.507a.346.346 0 1 0 0-.675zM728.725 338.738h-2.507a.346.346 0 1 0 0 .675h2.507a.346.346 0 1 0 0-.675zM735.133 337.567h-2.507a.346.346 0 1 0 0 .675h2.507a.346.346 0 1 0 0-.675zM735.133 338.738h-2.507a.346.346 0 1 0 0 .675h2.507a.346.346 0 1 0 0-.675z" transform="translate(-617.77 -333.602)"/><path class="cls-1" d="M724.885 338.084v-.73a.518.518 0 0 1 .518-.517h4.655v2.22a.578.578 0 1 0 1.156 0v-2.22h4.716a.518.518 0 0 1 .518.517v.73a.578.578 0 1 0 1.156 0v-.926a1.051 1.051 0 0 0-1.051-1.052h-5.34v-.973h5.083a.396.396 0 1 0 0-.791h-11.32a.396.396 0 0 0 0 .79h5.081v.974h-5.277a1.051 1.051 0 0 0-1.051 1.052v.926a.578.578 0 1 0 1.156 0zM737.353 343.876a10.403 10.403 0 0 1-2.67-.516 8.994 8.994 0 0 0 1.883-1.451.65.65 0 0 0-.46-1.105h-3.796l.291-.398-.006-.005a.49.49 0 0 0 .106-.294.5.5 0 0 0-.5-.5.491.491 0 0 0-.388.199l-.007-.005a10.917 10.917 0 0 1-1.947 2.427.438.438 0 0 0-.04.614l.006.008a.44.44 0 0 0 .652.03l.19-.19a8.44 8.44 0 0 0 .487-.426 11.754 11.754 0 0 0 1.4 1.096 18.66 18.66 0 0 1-2.667.638.446.446 0 0 0-.338.61l.005.012a.45.45 0 0 0 .486.266 16.206 16.206 0 0 0 3.61-.978 14.667 14.667 0 0 0 3.61.868.447.447 0 0 0 .47-.28l.01-.027a.437.437 0 0 0-.387-.593zm-3.766-.881a8.31 8.31 0 0 1-1.7-1.277.072.072 0 0 1 .05-.123h3.473a.072.072 0 0 1 .049.124 9.393 9.393 0 0 1-1.872 1.276zM735.641 344.991h-4.107a1.05 1.05 0 0 0-1.05 1.05v1.308a1.05 1.05 0 0 0 1.05 1.05h4.107a1.05 1.05 0 0 0 1.05-1.05v-1.308a1.05 1.05 0 0 0-1.05-1.05zm.016 2.246a.376.376 0 0 1-.377.376h-3.386a.376.376 0 0 1-.376-.376v-1.14a.376.376 0 0 1 .376-.376h3.386a.376.376 0 0 1 .377.376zM729.093 347.34h-1.713v-1.923h1.37a.396.396 0 0 0 .395-.396.396.396 0 0 0-.396-.395h-1.369v-1.156h.842a.74.74 0 0 0 .74-.74v-1.562a.74.74 0 0 0-.74-.74h-3.144a.74.74 0 0 0-.74.74v1.561a.74.74 0 0 0 .74.741h1.328v3.87h-.858a.356.356 0 0 1-.356-.356V345.1a.49.49 0 1 0-.98 0v1.924a1.298 1.298 0 0 0 1.297 1.297h3.584a.49.49 0 0 0 0-.98zm-3.396-4.661a.326.326 0 0 1-.325-.326v-.81a.326.326 0 0 1 .325-.325h1.966a.326.326 0 0 1 .326.325v.81a.326.326 0 0 1-.326.326z" transform="translate(-617.77 -333.602)"/><path d="M655.927 333.604a75.845 75.845 0 0 0-38.157 10.49l9.857 3.435a89.333 89.333 0 0 1 42.527-12.647 73.6 73.6 0 0 0-14.227-1.278z" transform="translate(-617.77 -333.602)" fill="#0069b1"/><path d="M636.063 354.472a85.87 85.87 0 0 1 33.578-18.493 87.808 87.808 0 0 0-42.951 15.227l9.373 3.266" transform="translate(-617.77 -333.602)" fill="#4bc1ef"/><path d="M636.543 358.552l9.234 3.218a59.507 59.507 0 0 1 21.47-23.946 64.487 64.487 0 0 0-30.704 20.728" transform="translate(-617.77 -333.602)" fill="#ffbc45"/><path class="cls-1" d="M676.69 358.64v-.319h1.892v.319h-.281v2.604l.393-.075v.338l-.393.075v.899h-.319v-.843l-1.274.244-.056-.356a1.228 1.228 0 0 1 .168-.038.824.824 0 0 1 .15-.019v-2.829zm.617 0v.693h.675v-.693zm0 .993v.693h.675v-.693zm0 1.78l.394-.056.281-.056v-.675h-.674zm1.387-2.08v-.337h1.2q.186-.3.505-.88-.187.355.056-.095l.338.15q-.263.45-.525.825h.75v.337h-1.03v.843h1.18v.337h-1.162a2.229 2.229 0 0 0 1.2 1.593q-.132.169-.244.337a2.42 2.42 0 0 1-1.143-1.517 2.514 2.514 0 0 1-1.162 1.555.21.21 0 0 1-.037-.056l-.207-.263a2.13 2.13 0 0 0 1.162-1.649h-1.012v-.337h1.05v-.843zm.618-.412a6.618 6.618 0 0 0-.468-.73l.318-.15q.057.074.207.3.206.3.28.411zM682.891 359.014v-.318h.731v-.675h.337v.675h.656v.318h-.656v.487l.15-.13q.281.224.544.468l-.225.224q-.15-.15-.394-.356l-.074-.075v1.18h-.338v-1.274a4.333 4.333 0 0 1-.674 1.03.972.972 0 0 0-.075-.187.732.732 0 0 0-.075-.187 3.9 3.9 0 0 0 .787-1.18zm.263 3.167a1.975 1.975 0 0 0-.338-.15 4.476 4.476 0 0 0 .431-.974l.337.112a7.031 7.031 0 0 1-.43 1.012zm1.461.187q-.656 0-.656-.562v-.768h.375v.693q-.019.319.393.3h.769a.367.367 0 0 0 .43-.281.786.786 0 0 1 .02-.131c.012-.1.024-.187.037-.263l.281.113a.545.545 0 0 0 .094.019 3.95 3.95 0 0 1-.113.45.612.612 0 0 1-.674.43zm.656-.712a6.03 6.03 0 0 0-.525-.6l.244-.206q.206.188.562.581zm-.431-.937v-2.51h2.136v2.51zm.356-2.23v.469h1.424v-.468zm0 .75v.45h1.424v-.45zm0 .712v.487h1.424v-.487zm1.817 2.099q-.319-.506-.562-.825l.3-.169q.319.432.581.844zM688.962 359.052v-.3h.787q-.112-.356-.244-.694l.357-.075a2.198 2.198 0 0 0 .075.225l.15.45-.3.094h.75v.3h-.825c0 .087-.006.212-.019.375v.337h.806q0 .9-.037 1.911 0 .656-.563.656h-.356a2.05 2.05 0 0 0-.074-.356 2.773 2.773 0 0 0 .337.019q.318.037.318-.338.038-.805.038-1.574h-.487v.188a3.82 3.82 0 0 1-.525 2.155 1.659 1.659 0 0 0-.131-.113 1.093 1.093 0 0 0-.15-.131 3.2 3.2 0 0 0 .468-1.893q.019-.205.02-.618.018-.393.018-.618zm1.93.168a.74.74 0 0 0-.131-.093.557.557 0 0 0-.15-.094 3.96 3.96 0 0 0 .655-1.05l.356.075q-.112.207-.206.375h2.005v.319h-2.192a3.376 3.376 0 0 1-.337.468zm-.019 3.28a.214.214 0 0 1-.037-.057 2.087 2.087 0 0 0-.169-.206 4.458 4.458 0 0 0 .956-.562l.225.225q-.6.393-.975.6zm-.15-2.886v-.281h.413v-.319h.355v.319h1.125v-.319h.337v.319h.412v.28h-.412v1.687h.487v.3h-2.754v-.3h.45v-1.687zm.768 0v.393h1.125v-.393zm0 .656v.393h1.125v-.393zm0 .637v.393h1.125v-.394zm1.724 1.574a10.203 10.203 0 0 0-.918-.581l.207-.225q.543.3.918.543zM695.09 358.714v-.374h4.46v.375h-2.23v3.729h-.432v-3.73zm3.934 2.249q-.487-.319-1.349-.843-.207-.131-.319-.206l.244-.3q.112.075.356.206.88.487 1.33.768zM701.479 358.92v-.337h1.33a3.624 3.624 0 0 0 .224-.6l.431.038-.224.562h2.192v.337h-2.324a1.447 1.447 0 0 1-.075.207 3.233 3.233 0 0 0-.187.43h2.867v.338h-3.017a3.295 3.295 0 0 0-.15.3q-.094.187-.15.28h2.81v.376l-1.236 1.012.75.3-.225.337q-.694-.337-2.38-1.012a1.475 1.475 0 0 0-.168-.075l.206-.318q.918.374 1.424.6l1.105-.881h-2.717v-.357q.131-.224.3-.562h-1.068v-.337h1.218l.169-.393q.056-.15.094-.244zM707.324 362.2v-.337h1.443v-3.785h.375v3.785h.843v-3.785h.375v3.785h1.462v.337zm.844-1.237q-.15-.487-.506-1.442l-.169-.45.338-.113q.168.412.506 1.33.15.375.205.543zm2.735 0l-.356-.15q.431-.936.769-1.855l.356.132q-.375.974-.769 1.873zM713.751 362.125v-3.785h.45v3.785zM719.204 358.714h-1.33v3.41h-.431v-3.41h-1.33v-.356h3.091zM721.04 362.462a3.16 3.16 0 0 0-.262-.244 3.103 3.103 0 0 0 .3-1.705v-2.286h1.33v3.71q.018.431-.431.45a4.84 4.84 0 0 1-.431.02 1.732 1.732 0 0 0-.038-.338h.338q.225.018.225-.188v-.974h-.656a2.726 2.726 0 0 1-.375 1.555zm.375-3.916v.862h.655v-.862zm0 2.023v.038h.655v-.88h-.655zm3.71 1.855a5.102 5.102 0 0 1-.937-.6 8.991 8.991 0 0 1-.787.6l-.225-.3v.356h-.356v-4.216h2.192c0 .088-.006.2-.018.338a2.671 2.671 0 0 1-.02.356q-.018.6-.655.562-.281.019-.618.019a1.14 1.14 0 0 0-.057-.319h.544q.45.038.43-.3a2.245 2.245 0 0 0 .038-.337h-1.48v1.33h1.874v.337a3.776 3.776 0 0 1-.637 1.312 4.037 4.037 0 0 0 .918.543q-.113.17-.206.32zm-1.949-.318a3.928 3.928 0 0 0 .768-.544 4.292 4.292 0 0 1-.58-1.293l.13-.037h-.318zm1.537-1.874h-1.031a3.147 3.147 0 0 0 .506 1.05 3.696 3.696 0 0 0 .525-1.05zM727.036 360.42a1.788 1.788 0 0 1-.056-.131.87.87 0 0 1-.094-.206 9.992 9.992 0 0 0 1.93-.431 3.693 3.693 0 0 1-.843-.712q-.337.3-.73.618a69.62 69.62 0 0 1-.15-.15 1.801 1.801 0 0 0-.113-.13 5.374 5.374 0 0 0 1.349-1.294l.393.075a1.733 1.733 0 0 1-.262.337h2.398v.356a5.888 5.888 0 0 1-1.217.919 7.603 7.603 0 0 0 1.798.318 1.4 1.4 0 0 1-.075.169 1.249 1.249 0 0 1-.094.187 6.388 6.388 0 0 1-2.06-.487 9.267 9.267 0 0 1-2.174.562zm2.155 1.986a2.367 2.367 0 0 0-.075-.393q.262.018.768.018.524.038.543-.468a3.935 3.935 0 0 1 .038-.562h-1.574q-.113 1.012-1.724 1.518-.075-.132-.225-.356 1.405-.356 1.556-1.162h-1.256v-.337h1.33a2.445 2.445 0 0 0 .037-.469h.394a.846.846 0 0 1-.018.15q-.02.206-.038.319h1.93q-.019.168-.037.524a3.007 3.007 0 0 0-.038.394.737.737 0 0 1-.88.805q-.263.018-.731.019zm1.18-3.691h-2.136a3.598 3.598 0 0 0 .993.768 4.477 4.477 0 0 0 1.143-.769zM733.05 358.808v-.318h2.118a1.987 1.987 0 0 1-.094-.244l-.056-.187.393-.075q.113.281.188.506h1.949v.319zm.3 3.672v-3.016h1.125q-.094-.131-.356-.525l.337-.112a5.94 5.94 0 0 1 .412.562l-.28.075h1.067a2.844 2.844 0 0 1 .188-.262q.169-.244.243-.375l.356.112q-.168.263-.375.525h1.143v2.398q.038.524-.562.525h-.6a2.018 2.018 0 0 0-.074-.356q.225.018.562.019.337.018.318-.244v-2.024h-3.129v2.698zm.656-1.667a1.47 1.47 0 0 0-.206-.262 6.646 6.646 0 0 0 .993-.712l.244.224q-.506.394-1.03.75zm.394 1.05v-1.275h1.799v1.274zm1.462-.3v-.675h-1.143v.674zm.73-.769q-.469-.356-1.05-.712l.207-.243q.093.056.243.168a6.864 6.864 0 0 1 .787.506z" transform="translate(-617.77 -333.602)"/></svg>