<svg version="1.1" id="图层_1" xmlns="http://www.w3.org/2000/svg" x="0" y="0" viewBox="0 0 333 29" xml:space="preserve"><style>.st0{fill:#fff}</style><path class="st0" d="M60.45 27.24l.83-.18c.08.61.41.9.99.89.46-.01.71-.19.73-.54.01-.25-.17-.44-.54-.57-.04-.01-.11-.03-.2-.06-.24-.08-.42-.13-.53-.16-.79-.17-1.18-.56-1.15-1.17.07-.71.57-1.09 1.51-1.13.99-.01 1.57.38 1.72 1.17l-.85.16c-.07-.42-.34-.63-.81-.63-.41.01-.63.16-.65.44-.04.26.22.45.77.55.41.09.71.19.89.3.49.24.74.59.75 1.07-.04.79-.57 1.2-1.6 1.23-1.07.01-1.69-.44-1.86-1.37zM67.05 26.77v-2.38h.87v2.38c0 .74.32 1.12.95 1.13.65 0 .97-.38.97-1.13v-2.38h.85v2.36c0 1.24-.61 1.86-1.84 1.86-1.19 0-1.79-.62-1.8-1.84zM77.67 28.53h-.89c-1.1-1.7-1.66-2.59-1.7-2.67-.12-.2-.2-.34-.24-.42.01.12.02.36.02.73v2.36h-.81v-4.14h.93c1.06 1.69 1.61 2.58 1.66 2.65.13.21.2.35.22.42h.02c-.01-.09-.02-.3-.02-.63v-2.44h.81v4.14zM84.67 28.53h-.89c-1.1-1.7-1.66-2.59-1.7-2.67-.12-.2-.2-.34-.24-.42.01.12.02.36.02.73v2.36h-.81v-4.14h.93c1.06 1.69 1.61 2.58 1.66 2.65.13.21.2.35.22.42h.02c-.01-.09-.02-.3-.02-.63v-2.44h.81v4.14zM87.56 24.39h.97c.56.89.86 1.37.91 1.45.03.04.07.11.12.2.05.09.09.16.1.2h.02c.04-.08.11-.2.22-.38.07-.13.35-.62.85-1.47h.99l-1.68 2.5v1.64h-.85V26.9l-1.65-2.51zM98.27 27.24l.83-.18c.08.61.41.9.99.89.46-.01.71-.19.73-.54.01-.25-.17-.44-.54-.57-.04-.01-.11-.03-.2-.06-.24-.08-.42-.13-.53-.16-.79-.17-1.18-.56-1.15-1.17.07-.71.57-1.09 1.51-1.13.99-.01 1.57.38 1.72 1.17l-.85.16c-.07-.42-.34-.63-.81-.63-.41.01-.63.16-.65.44-.04.26.22.45.77.55.41.09.71.19.89.3.49.24.74.59.75 1.07-.04.79-.57 1.2-1.6 1.23-1.07.01-1.69-.44-1.86-1.37zM108.12 28.53h-3.25v-4.14h3.17v.71h-2.3v.97h2.16v.71h-2.16v1.07h2.38v.68zM114.98 28.53h-1.11l-1.07-1.62h-.63v1.62h-.87v-4.14h1.9c.99.03 1.51.44 1.57 1.23 0 .69-.35 1.1-1.05 1.23l1.26 1.68zm-2.81-3.47v1.19h.87c.55 0 .82-.2.81-.59.01-.4-.26-.59-.81-.59h-.87zM121.6 24.39l-1.58 4.14h-.97l-1.6-4.14h.93l1.03 2.97c.07.2.11.34.14.42h.02c0-.01.01-.04.02-.08.05-.16.09-.27.12-.34l.97-2.97h.92zM124.5 28.53v-4.14h.87v4.14h-.87zM132.27 25.6l-.81.2c-.16-.46-.48-.71-.95-.73-.67.04-1.03.51-1.07 1.41.04.89.4 1.36 1.09 1.43.54 0 .87-.32.97-.95l.83.28c-.21.91-.81 1.37-1.8 1.39-1.27-.05-1.93-.77-1.98-2.14.07-1.36.73-2.07 1.98-2.14.89.02 1.47.44 1.74 1.25zM138.65 28.53h-3.25v-4.14h3.17v.71h-2.3v.97h2.16v.71h-2.16v1.07h2.38v.68z"/><g><path class="st0" d="M66.84 3.16a1.23 1.23 0 0 0-1.17-1.61h-3.4c-.8 0-1.44.65-1.44 1.44V18.7c0 .41.34.75.75.75s.75-.34.75-.75v-2.33c.77-.01 1.94-.03 2.21-.08 1.63-.16 2.44-1.23 2.44-3.23.05-1.68-.55-3.26-1.81-4.73l1.67-5.17zm-1.36 9.83c0 1.21-.45 1.81-1.34 1.81h-1.81V3.28c0-.17.14-.31.31-.31h2.23c.23 0 .39.22.32.44l-1.6 5.16c1.26 1.42 1.89 2.89 1.89 4.42zM77.1 1.79h-7.8c-.55 0-.99.44-.99.99v15.67c0 .55.45.99 1 .99l7.8-.06c.54 0 .98-.45.98-.99V2.78c0-.55-.44-.99-.99-.99zm-.58 15.65c0 .27-.22.48-.48.48h-5.65a.48.48 0 0 1-.48-.48v-6.82h6.62v6.82zm0-8.32H69.9V3.69c0-.27.22-.48.48-.48h5.65c.27 0 .48.22.48.48v5.43zM84.62 6.54c.27.33.76.39 1.09.12l.12-.1c.34-.28.38-.79.08-1.12-.41-.44-.91-.97-1.51-1.6-.44-.5-.81-.92-1.12-1.25a.764.764 0 0 0-1-.11c-.38.26-.45.8-.14 1.14.82.91 1.64 1.88 2.48 2.92zM93.35 6.79c.33.29.83.25 1.12-.07.95-1.06 1.85-2.07 2.69-3.03.31-.35.25-.88-.12-1.16a.79.79 0 0 0-1.07.11l-.21.24C94.8 4 93.98 4.91 93.29 5.6c-.32.33-.31.85.04 1.16l.02.03zM115.06 15.16l.03-.04c.23-.32.16-.77-.17-.99-.67-.44-1.37-.89-2.11-1.33a.7.7 0 0 0-.91.17c-.26.33-.17.81.19 1.02.67.41 1.34.85 1.99 1.32.33.22.76.16.98-.15zM105.43 12.8a.7.7 0 0 0-.91.17c-.26.33-.17.81.19 1.02.67.41 1.34.85 1.99 1.32a.7.7 0 0 0 .97-.15l.03-.04c.23-.32.16-.77-.17-.99-.66-.44-1.36-.89-2.1-1.33zM105.43 8.89a.7.7 0 0 0-.91.17c-.26.33-.17.81.19 1.02.67.41 1.34.85 1.99 1.32a.7.7 0 0 0 .97-.15l.03-.04c.23-.32.16-.77-.17-.99-.66-.44-1.36-.89-2.1-1.33zM114.1 11.4a.7.7 0 0 0 .97-.15l.03-.04c.23-.32.16-.77-.17-.99-.67-.44-1.37-.89-2.11-1.33a.7.7 0 0 0-.91.17c-.26.33-.17.81.19 1.02.68.41 1.34.85 2 1.32z"/><path class="st0" d="M103.09 18.19V7.58c0-.33.27-.59.59-.59h5.4V18.3c0 .41.34.75.75.75s.75-.34.75-.75V7h5.4c.33 0 .59.27.59.59v9.11c.05.68-.39 1.03-1.34 1.03h-1.5a.7.7 0 0 0-.68.88v.01c.08.31.36.52.68.52h1.97c1.68-.05 2.5-.82 2.44-2.29V7.33c0-.92-.75-1.67-1.67-1.67h-5.9v-2.6h7.92c.41 0 .75-.34.75-.75s-.34-.75-.75-.75h-17.35c-.41 0-.75.34-.75.75s.34.75.75.75h7.92v2.6h-5.9c-.92 0-1.67.75-1.67 1.67V18.2c0 .44.35.79.79.79.46 0 .81-.36.81-.8zM99.52 18.23c0 .41-.34.75-.75.75h-4.99c-1.68 0-2.52-.79-2.52-2.37v-6.47H87.4c0 .16-.01.8-.04 1.26-.1 3.59-2.02 6.19-5.67 7.8-.35.15-.76.03-.98-.28l-.01-.02a.82.82 0 0 1 .35-1.24c3.03-1.27 4.42-2.76 4.67-6.34.02-.27.02-.66.02-1.18h-4.69c-.41 0-.75-.34-.75-.75s.34-.75.75-.75h7.85V1.4c0-.44.35-.79.79-.79s.79.35.79.79v7.25h7.92c.41 0 .75.34.75.75s-.34.75-.75.75h-5.56v6.15c0 .79.47 1.18 1.42 1.18h4.51c.42 0 .75.34.75.75zM127.54 5.42h-3.25c-.3 0-.54.2-.54.44s.24.44.54.44h3.25c.3 0 .54-.2.54-.44 0-.25-.24-.44-.54-.44zM127.54 6.94h-3.25c-.3 0-.54.2-.54.44s.24.44.54.44h3.25c.3 0 .54-.2.54-.44 0-.25-.24-.44-.54-.44zM135.84 5.42h-3.25c-.3 0-.54.2-.54.44s.24.44.54.44h3.25c.3 0 .54-.2.54-.44.01-.25-.24-.44-.54-.44zM135.84 6.94h-3.25c-.3 0-.54.2-.54.44s.24.44.54.44h3.25c.3 0 .54-.2.54-.44.01-.25-.24-.44-.54-.44z"/><path class="st0" d="M122.56 6.09v-.95c0-.37.3-.67.67-.67h6.03v2.88c0 .41.34.75.75.75s.75-.34.75-.75V4.47h6.11c.37 0 .67.3.67.67v.95c0 .41.34.75.75.75s.75-.34.75-.75v-1.2c0-.75-.61-1.36-1.36-1.36h-6.92V2.26h6.58c.28 0 .51-.23.51-.51s-.23-.51-.51-.51h-14.67c-.28 0-.51.23-.51.51s.23.51.51.51h6.58v1.26h-6.84c-.75 0-1.36.61-1.36 1.36v1.2c0 .41.34.75.75.75.43.01.76-.33.76-.74zM138.72 13.59c-1.3-.09-2.45-.32-3.46-.67.9-.52 1.71-1.15 2.44-1.88.16-.16.24-.37.24-.59 0-.46-.38-.84-.84-.84h-4.92l.38-.52-.01-.01c.08-.11.14-.24.14-.38 0-.36-.29-.65-.65-.65-.21 0-.39.1-.5.26l-.01-.01c-.72 1.17-1.65 2.4-2.52 3.14-.23.2-.25.56-.05.8l.01.01c.22.26.6.28.84.04l.25-.25c.32-.26.53-.45.63-.55.58.53 1.18 1 1.81 1.42-.94.31-2.09.59-3.45.83-.37.06-.58.45-.44.79 0 0 0 .01.01.01.1.25.37.39.63.35 1.85-.31 3.41-.73 4.68-1.27 1.17.49 2.73.86 4.68 1.13.26.03.51-.12.61-.36 0-.01.01-.02.01-.04.13-.35-.13-.73-.51-.76zm-4.88-1.14a11 11 0 0 1-2.2-1.65c-.06-.06-.02-.16.06-.16h4.5c.08 0 .13.11.06.16-.69.62-1.5 1.17-2.42 1.65zM136.5 15.04h-5.32c-.75 0-1.36.61-1.36 1.36v1.69c0 .75.61 1.36 1.36 1.36h5.32c.75 0 1.36-.61 1.36-1.36V16.4c0-.75-.61-1.36-1.36-1.36zm.02 2.91c0 .27-.22.49-.49.49h-4.39a.49.49 0 0 1-.49-.49v-1.48c0-.27.22-.49.49-.49h4.39c.27 0 .49.22.49.49v1.48zM128.02 18.08h-2.22v-2.49h1.77c.28 0 .51-.23.51-.51s-.23-.51-.51-.51h-1.77v-1.5h1.09c.53 0 .96-.43.96-.96v-2.02a.96.96 0 0 0-.96-.96h-4.07a.96.96 0 0 0-.96.96v2.02c0 .53.43.96.96.96h1.72v5.01h-1.11c-.25 0-.46-.21-.46-.46v-2.44c0-.35-.28-.64-.64-.64-.35 0-.64.28-.64.64v2.49c0 .93.75 1.68 1.68 1.68h4.64c.35 0 .64-.28.64-.64s-.28-.63-.63-.63zm-4.4-6.04c-.23 0-.42-.19-.42-.42v-1.05c0-.23.19-.42.42-.42h2.55c.23 0 .42.19.42.42v1.05c0 .23-.19.42-.42.42h-2.55z"/></g><g><path d="M41.52 1.15c-13.23.1-25.53 3.7-36.03 9.91l9.31 3.24C26.54 7.24 40.23 2.96 54.96 2.36c-4.35-.82-8.84-1.24-13.44-1.21z" fill="#0069b1"/><path d="M22.77 20.86A81.03 81.03 0 0 1 54.48 3.4C39.4 4.61 25.54 9.75 13.92 17.77l8.85 3.09" fill="#4bc1ef"/><path d="M23.22 24.71l8.72 3.04c4.54-9.25 11.57-17.07 20.27-22.61C40.62 8.77 30.6 15.66 23.22 24.71" fill="#ffbc45"/></g><g><path class="st0" d="M161.93 9.87v-.86h5.13v.86h-.76v7.06l1.07-.2v.91l-1.07.2v2.44h-.86V18l-3.45.66-.15-.96c.1-.03.25-.07.46-.1.17-.03.3-.05.41-.05V9.87h-.78zm1.67 0v1.88h1.83V9.87h-1.83zm0 2.69v1.88h1.83v-1.88h-1.83zm0 4.82c.24-.03.59-.08 1.07-.15.34-.07.59-.12.76-.15v-1.83h-1.83v2.13zm3.76-5.63v-.91h3.25c.34-.54.79-1.34 1.37-2.39-.34.64-.29.56.15-.25l.91.41c-.47.81-.95 1.56-1.42 2.23h2.03v.91h-2.79V14.03h3.2v.91h-3.15c.44 2 1.52 3.44 3.25 4.32-.24.3-.46.61-.66.91-1.69-1.08-2.72-2.45-3.1-4.11-.34 1.62-1.39 3.03-3.15 4.21a.483.483 0 0 1-.1-.15c-.24-.3-.42-.54-.56-.71 1.93-1.15 2.98-2.64 3.15-4.47H167v-.91h2.84v-2.29h-2.48zm1.67-1.12c-.37-.68-.8-1.34-1.27-1.98l.86-.41c.1.14.29.41.56.81.37.54.63.91.76 1.12l-.91.46zM178.73 10.88v-.86h1.98V8.19h.91v1.83h1.78v.86h-1.78v1.32l.41-.36c.51.41 1 .83 1.47 1.27l-.61.61c-.27-.27-.63-.59-1.07-.96l-.2-.2v3.2h-.91v-3.45c-.54 1.12-1.15 2.05-1.83 2.79-.03-.13-.1-.3-.2-.51a2.32 2.32 0 0 0-.2-.51c.91-.95 1.62-2.01 2.13-3.2h-1.88zm.71 8.58c-.3-.17-.61-.3-.91-.41.44-.71.83-1.59 1.17-2.64l.91.3c-.31.93-.7 1.84-1.17 2.75zm3.96.51c-1.19 0-1.78-.51-1.78-1.52v-2.08h1.02v1.88c-.03.58.32.85 1.07.81h2.08c.64.03 1.03-.22 1.17-.76 0-.07.02-.19.05-.36.03-.27.07-.51.1-.71.17.07.42.17.76.3.13.03.22.05.25.05-.1.51-.2.91-.3 1.22-.27.81-.88 1.2-1.83 1.17h-2.59zm1.78-1.93a14.7 14.7 0 0 0-1.42-1.62l.66-.56c.37.34.88.86 1.52 1.57l-.76.61zm-1.17-2.54V8.7h5.79v6.8h-5.79zm.96-6.04v1.27h3.86V9.46h-3.86zm0 2.03v1.22h3.86v-1.22h-3.86zm0 1.93v1.32h3.86v-1.32h-3.86zm4.93 5.69c-.58-.91-1.08-1.66-1.52-2.23l.81-.46c.58.78 1.1 1.54 1.57 2.28l-.86.41zM195.18 10.99v-.81h2.13c-.2-.64-.42-1.27-.66-1.88l.97-.2c.03.14.1.34.2.61.17.51.3.91.41 1.22l-.81.25h2.03v.81h-2.23c0 .24-.02.58-.05 1.02v.91h2.18c0 1.62-.03 3.35-.1 5.18 0 1.18-.51 1.78-1.52 1.78h-.96c-.03-.3-.1-.63-.2-.96.27.03.58.05.91.05.58.07.86-.24.86-.91.07-1.45.1-2.88.1-4.26h-1.32v.51c-.03 2.61-.51 4.55-1.42 5.84-.07-.07-.19-.17-.35-.3-.17-.17-.3-.29-.41-.36.81-1.05 1.23-2.76 1.27-5.13.03-.37.05-.93.05-1.68.03-.71.05-1.27.05-1.68h-1.13zm5.23.45c-.07-.07-.19-.15-.36-.25-.17-.13-.3-.22-.41-.25.78-.91 1.37-1.86 1.78-2.84l.96.2c-.2.37-.39.71-.56 1.02h5.43v.86h-5.94c-.22.4-.53.82-.9 1.26zm-.05 8.89a.483.483 0 0 1-.1-.15c-.2-.27-.35-.46-.46-.56 1.22-.58 2.08-1.08 2.59-1.52l.61.6c-1.09.71-1.97 1.25-2.64 1.63zm-.41-7.82v-.76h1.12v-.86h.96v.86h3.05v-.86h.91v.86h1.12v.76h-1.12v4.57h1.32v.81h-7.46v-.81h1.22v-4.57h-1.12zm2.08 0v1.07h3.05v-1.07h-3.05zm0 1.78v1.07h3.05v-1.07h-3.05zm0 1.72v1.07h3.05v-1.07h-3.05zm4.67 4.27c-.81-.58-1.64-1.1-2.49-1.57l.56-.61c.98.54 1.81 1.03 2.49 1.47l-.56.71zM211.78 10.07V9.06h12.08v1.02h-6.04v10.1h-1.17v-10.1h-4.87zm10.66 6.09c-.88-.58-2.1-1.34-3.65-2.28-.37-.24-.66-.42-.86-.56l.66-.81c.2.14.52.32.96.56 1.59.88 2.79 1.57 3.6 2.08l-.71 1.01zM229.09 10.63v-.91h3.6c.27-.57.47-1.12.61-1.62l1.17.1c-.2.51-.41 1.02-.61 1.52h5.94v.91h-6.29c-.03.14-.1.32-.2.56-.14.24-.3.63-.51 1.17h7.77v.91h-8.17c-.1.17-.24.44-.41.81-.17.34-.3.59-.41.76h7.62v1.02l-3.35 2.74 2.03.81-.61.91c-1.25-.61-3.4-1.52-6.45-2.74-.2-.1-.36-.17-.46-.2l.56-.86c1.66.68 2.95 1.22 3.86 1.62l3-2.39h-7.36v-.96c.24-.41.51-.91.81-1.52h-2.89v-.91h3.3c.1-.24.25-.59.46-1.07.1-.27.19-.49.25-.66h-3.26zM244.93 19.51v-.91h3.91V8.35h1.02V18.6h2.28V8.35h1.02V18.6h3.96v.91h-12.19zm2.29-3.35c-.27-.88-.73-2.18-1.37-3.91-.2-.54-.36-.95-.46-1.22l.91-.3c.3.74.76 1.95 1.37 3.6.27.68.46 1.17.56 1.47l-1.01.36zm7.41 0l-.96-.41c.78-1.69 1.47-3.37 2.08-5.03l.96.36c-.68 1.77-1.37 3.46-2.08 5.08zM262.34 19.31V9.06h1.22v10.26h-1.22zM277.12 10.07h-3.6v9.24h-1.17v-9.24h-3.6v-.96h8.38v.96zM282.09 20.23a8.98 8.98 0 0 0-.71-.66c.57-.81.84-2.35.81-4.62v-6.2h3.6V18.8c.03.78-.35 1.18-1.17 1.22-.37.03-.76.05-1.17.05 0-.27-.03-.58-.1-.91h.91c.41.03.61-.14.61-.51v-2.64h-1.78c.02 1.83-.32 3.23-1 4.22zm1.02-10.62v2.34h1.78V9.61h-1.78zm0 5.49v.1h1.78v-2.39h-1.78v2.29zm10.05 5.02c-1.05-.54-1.9-1.08-2.54-1.62-.54.47-1.25 1.02-2.13 1.62-.2-.27-.41-.54-.61-.81v.96h-.96V8.85h5.94c0 .24-.02.54-.05.91 0 .41-.02.73-.05.96-.03 1.08-.63 1.59-1.78 1.52-.51.03-1.07.05-1.67.05 0-.24-.05-.52-.15-.86h1.47c.81.07 1.2-.2 1.17-.81.07-.41.1-.71.1-.91h-4.01v3.6h5.08v.91c-.44 1.49-1.02 2.67-1.73 3.55.61.51 1.44 1 2.49 1.47-.21.33-.4.61-.57.88zm-5.28-.86c.85-.47 1.54-.96 2.08-1.47-.64-.91-1.17-2.08-1.57-3.5l.36-.1h-.86v5.07zm4.16-5.08h-2.79c.41 1.29.86 2.23 1.37 2.84.51-.64.98-1.58 1.42-2.84zM298.34 14.69l-.15-.36c-.14-.24-.22-.42-.25-.56 2.17-.3 3.91-.69 5.23-1.17-.71-.41-1.47-1.05-2.28-1.93-.61.54-1.27 1.1-1.98 1.68l-.41-.41c-.14-.17-.24-.29-.3-.36 1.59-1.12 2.81-2.28 3.65-3.5l1.07.2c-.2.34-.44.64-.71.91h6.5v.96a16.077 16.077 0 0 1-3.3 2.49c1.35.44 2.98.73 4.87.86-.03.1-.1.25-.2.46-.1.24-.19.41-.25.51-2.37-.24-4.23-.68-5.58-1.32-1.41.63-3.37 1.14-5.91 1.54zm5.84 5.38c-.03-.34-.1-.69-.2-1.07.47.03 1.17.05 2.08.05.95.07 1.44-.36 1.47-1.27 0-.54.03-1.05.1-1.52h-4.26c-.2 1.83-1.76 3.2-4.67 4.11-.14-.24-.34-.56-.61-.96 2.54-.64 3.94-1.69 4.21-3.15h-3.4v-.91h3.6c.07-.34.1-.76.1-1.27h1.07c0 .1-.02.24-.05.41-.03.37-.07.66-.1.86h5.23c-.03.3-.07.78-.1 1.42-.07.47-.1.83-.1 1.07-.03 1.52-.83 2.25-2.39 2.18-.48.04-1.14.05-1.98.05zm3.2-10h-5.79c.81.88 1.71 1.57 2.69 2.08 1.05-.47 2.08-1.16 3.1-2.08zM314.64 10.33v-.87h5.74c-.07-.13-.15-.36-.25-.66l-.15-.51 1.07-.2c.2.51.37.96.51 1.37h5.28v.86h-12.2zm.81 9.95V12.1h3.05c-.17-.24-.49-.71-.96-1.42l.91-.3c.54.68.91 1.19 1.12 1.52l-.76.2h2.89c.1-.17.27-.41.51-.71.3-.44.52-.78.66-1.02l.96.3c-.3.47-.64.95-1.02 1.42h3.1v6.5c.07.95-.44 1.42-1.52 1.42h-1.62c-.03-.3-.1-.63-.2-.96.41.03.91.05 1.52.05.61.03.9-.19.86-.66v-5.48h-8.48v7.31h-1.02zm1.78-4.52c-.17-.27-.35-.51-.56-.71 1.12-.68 2.01-1.32 2.69-1.93l.66.61c-.92.71-1.85 1.39-2.79 2.03zm1.06 2.84v-3.45h4.87v3.45h-4.87zm3.96-.81v-1.83h-3.1v1.83h3.1zm1.98-2.08c-.85-.64-1.79-1.29-2.84-1.93l.56-.66c.17.1.39.25.66.46.95.54 1.66 1 2.13 1.37l-.51.76z"/></g><path class="st0" d="M150.07 1.34h.32v27.24h-.32z"/></svg>