<svg id="图层_1" data-name="图层 1" xmlns="http://www.w3.org/2000/svg" viewBox="0 0 180 43.374"><defs><style>.cls-1{fill:#595757}</style></defs><path class="cls-1" d="M416.526 129.585l.963-.207a1.033 1.033 0 0 0 1.147 1.033q.802-.022.849-.62.022-.435-.62-.665a7.015 7.015 0 0 0-.23-.069 6.955 6.955 0 0 0-.618-.183q-1.376-.298-1.33-1.353.113-1.239 1.742-1.308 1.721-.022 1.996 1.354l-.986.183a.827.827 0 0 0-.941-.734q-.71.024-.757.505-.069.459.895.642a3.988 3.988 0 0 1 1.032.344 1.368 1.368 0 0 1 .871 1.239q-.069 1.375-1.857 1.422a1.876 1.876 0 0 1-2.156-1.583zM424.169 129.035v-2.753h1.009v2.753q0 1.285 1.101 1.307 1.124 0 1.124-1.307v-2.753h.986v2.73a2.11 2.11 0 1 1-4.22.023zM436.467 131.076h-1.032q-1.904-2.959-1.972-3.096c-.138-.23-.23-.39-.276-.482q.022.207.023.849v2.729h-.94v-4.794h1.078q1.834 2.936 1.926 3.073a2.055 2.055 0 0 1 .252.482h.023a7.008 7.008 0 0 1-.023-.733v-2.822h.94zM444.568 131.076h-1.032q-1.904-2.959-1.972-3.096c-.138-.23-.23-.39-.276-.482q.023.207.023.849v2.729h-.94v-4.794h1.078q1.834 2.936 1.926 3.073a2.053 2.053 0 0 1 .252.482h.023a7.008 7.008 0 0 1-.023-.733v-2.822h.941zM447.922 126.282h1.123q.964 1.537 1.056 1.675c.03.046.076.123.137.229a1.656 1.656 0 0 1 .115.23h.023q.069-.138.252-.436.115-.23.987-1.698h1.146l-1.95 2.89v1.904h-.986v-1.88zM460.316 129.585l.964-.207a1.033 1.033 0 0 0 1.147 1.033q.802-.022.848-.62.023-.435-.62-.665a7.015 7.015 0 0 0-.229-.069 6.945 6.945 0 0 0-.619-.183q-1.376-.298-1.33-1.353.114-1.239 1.742-1.308 1.722-.022 1.997 1.354l-.987.183a.827.827 0 0 0-.94-.734q-.711.024-.757.505-.07.459.894.642a3.99 3.99 0 0 1 1.032.344 1.367 1.367 0 0 1 .872 1.239q-.07 1.375-1.858 1.422a1.876 1.876 0 0 1-2.156-1.583zM471.72 131.076h-3.761v-4.794h3.67v.826h-2.661v1.124h2.5v.826h-2.5v1.238h2.752zM479.661 131.076h-1.284l-1.239-1.88h-.734v1.88h-1.008v-4.794h2.201q1.72.047 1.813 1.423a1.323 1.323 0 0 1-1.216 1.421zm-3.257-4.014v1.377h1.01q.963 0 .94-.69.023-.686-.94-.687zM487.327 126.282l-1.835 4.794h-1.124l-1.858-4.794h1.078l1.193 3.441.16.481h.023a.341.341 0 0 1 .023-.09c.061-.185.107-.315.138-.39l1.124-3.442zM490.68 131.076v-4.794h1.009v4.794zM499.675 127.682l-.94.229a1.151 1.151 0 0 0-1.1-.849q-1.171.07-1.24 1.629.069 1.537 1.262 1.651.94 0 1.124-1.1l.963.32a1.939 1.939 0 0 1-2.087 1.606q-2.202-.092-2.294-2.477a2.252 2.252 0 0 1 2.294-2.478 2.022 2.022 0 0 1 2.018 1.469zM507.066 131.076h-3.761v-4.794h3.67v.826h-2.662v1.124h2.5v.826h-2.5v1.238h2.753zM423.927 101.704a1.42 1.42 0 0 0-1.35-1.857h-3.941a1.668 1.668 0 0 0-1.668 1.669v18.186a.867.867 0 0 0 1.733 0v-2.695c.888-.008 2.246-.037 2.557-.09q2.828-.273 2.83-3.742a7.882 7.882 0 0 0-2.1-5.477zm-1.574 11.38q0 2.1-1.552 2.099h-2.1V101.85a.36.36 0 0 1 .36-.36h2.58a.39.39 0 0 1 .372.506l-1.851 5.976a7.649 7.649 0 0 1 2.19 5.112zM435.813 100.121h-9.028a1.146 1.146 0 0 0-1.146 1.146v18.147a1.146 1.146 0 0 0 1.155 1.146l9.028-.073a1.146 1.146 0 0 0 1.136-1.146v-18.074a1.146 1.146 0 0 0-1.145-1.146zm-.68 18.118a.56.56 0 0 1-.561.56h-6.547a.56.56 0 0 1-.56-.56v-7.894h7.668zm0-9.628h-7.669v-6.286a.56.56 0 0 1 .561-.56h6.547a.56.56 0 0 1 .56.56zM444.516 105.621a.894.894 0 0 0 1.261.135l.134-.11a.89.89 0 0 0 .088-1.292q-.708-.768-1.738-1.86-.758-.873-1.292-1.45a.89.89 0 0 0-1.318 1.196q1.41 1.58 2.865 3.381zM454.624 105.914a.922.922 0 0 0 1.291-.082q1.65-1.845 3.118-3.507a.918.918 0 1 0-1.383-1.207q-.114.13-.243.281-1.667 1.944-2.858 3.149a.918.918 0 0 0 .045 1.34zM479.757 115.598l.035-.048a.801.801 0 0 0-.198-1.142q-1.161-.77-2.437-1.542a.803.803 0 1 0-.827 1.377q1.17.711 2.308 1.527a.803.803 0 0 0 1.119-.172zM468.607 112.866a.803.803 0 1 0-.827 1.377q1.171.711 2.308 1.527a.803.803 0 0 0 1.119-.172l.035-.048a.801.801 0 0 0-.197-1.142q-1.162-.77-2.438-1.542zM468.607 108.338a.803.803 0 1 0-.827 1.376q1.171.711 2.308 1.527a.803.803 0 0 0 1.119-.172l.035-.048a.801.801 0 0 0-.197-1.142q-1.162-.77-2.438-1.541zM478.638 111.24a.803.803 0 0 0 1.119-.17l.035-.05a.801.801 0 0 0-.198-1.141q-1.161-.77-2.437-1.541a.803.803 0 1 0-.827 1.376q1.17.711 2.308 1.527z" transform="translate(-327.77 -98.373)"/><path class="cls-1" d="M465.901 119.111l-.005-12.279a.686.686 0 0 1 .686-.686h6.251v13.1a.867.867 0 0 0 1.735 0v-13.1h6.251a.686.686 0 0 1 .687.686v10.542q.09 1.185-1.552 1.187h-1.734a.81.81 0 0 0-.785 1.02l.004.016a.813.813 0 0 0 .785.607h2.277q2.92-.092 2.83-2.647v-11.026a1.937 1.937 0 0 0-1.937-1.937h-6.826v-3.012h9.174a.867.867 0 1 0 0-1.735h-20.083a.867.867 0 1 0 0 1.735h9.174v3.012h-6.826a1.937 1.937 0 0 0-1.937 1.937v12.58a.916.916 0 0 0 .916.916.916.916 0 0 0 .915-.916zM461.765 119.154a.867.867 0 0 1-.868.867h-5.773q-2.922 0-2.92-2.738v-7.486h-4.474c0 .183-.009.923-.042 1.455-.117 4.158-2.336 7.171-6.561 9.028a.946.946 0 0 1-1.138-.32l-.016-.02a.953.953 0 0 1 .41-1.439c3.504-1.47 5.12-3.19 5.403-7.336.02-.307.028-.759.028-1.368h-5.432a.867.867 0 1 1 0-1.734h9.083v-8.398a.913.913 0 1 1 1.826 0v8.398h9.173a.867.867 0 1 1 0 1.734h-6.435v7.12q0 1.37 1.643 1.37h5.226a.867.867 0 0 1 .867.867zM494.203 104.32h-3.761a.519.519 0 1 0 0 1.013h3.76a.519.519 0 1 0 0-1.013zM494.203 106.076h-3.761a.518.518 0 1 0 0 1.013h3.76a.518.518 0 1 0 0-1.013zM503.815 104.32h-3.761a.519.519 0 1 0 0 1.013h3.761a.519.519 0 1 0 0-1.013zM503.815 106.076h-3.761a.518.518 0 1 0 0 1.013h3.761a.518.518 0 1 0 0-1.013z" transform="translate(-327.77 -98.373)"/><path class="cls-1" d="M488.443 105.096v-1.095a.777.777 0 0 1 .776-.776h6.983v3.332a.867.867 0 1 0 1.734 0v-3.332h7.074a.776.776 0 0 1 .776.776v1.095a.867.867 0 0 0 1.735 0v-1.39a1.577 1.577 0 0 0-1.577-1.577h-8.008v-1.46h7.623a.593.593 0 0 0 0-1.187H488.58a.593.593 0 0 0 0 1.187h7.622v1.461h-7.916a1.577 1.577 0 0 0-1.577 1.577v1.39a.867.867 0 0 0 1.734 0zM507.145 113.783a15.604 15.604 0 0 1-4.005-.774 13.491 13.491 0 0 0 2.825-2.176.976.976 0 0 0-.692-1.658h-5.693l.437-.597-.009-.006a.733.733 0 0 0 .16-.441.75.75 0 0 0-.75-.75.737.737 0 0 0-.584.298l-.01-.007a16.386 16.386 0 0 1-2.92 3.64.657.657 0 0 0-.06.921l.01.011a.66.66 0 0 0 .976.047l.285-.285c.365-.304.608-.517.73-.64a17.621 17.621 0 0 0 2.1 1.644 27.98 27.98 0 0 1-4 .957.669.669 0 0 0-.506.916l.007.017a.675.675 0 0 0 .729.4 24.314 24.314 0 0 0 5.413-1.468 22.003 22.003 0 0 0 5.415 1.302.67.67 0 0 0 .705-.42l.016-.041a.655.655 0 0 0-.579-.89zm-5.649-1.321a12.461 12.461 0 0 1-2.55-1.915.108.108 0 0 1 .073-.185h5.212a.107.107 0 0 1 .073.186 14.087 14.087 0 0 1-2.808 1.914zM504.577 115.457h-6.161a1.575 1.575 0 0 0-1.575 1.575v1.962a1.575 1.575 0 0 0 1.575 1.575h6.16a1.575 1.575 0 0 0 1.576-1.576v-1.96a1.575 1.575 0 0 0-1.575-1.576zm.023 3.369a.564.564 0 0 1-.564.564h-5.08a.564.564 0 0 1-.564-.564v-1.71a.564.564 0 0 1 .565-.564h5.079a.564.564 0 0 1 .564.564zM494.755 118.98h-2.57v-2.884h2.054a.593.593 0 0 0 .593-.594.593.593 0 0 0-.593-.593h-2.054v-1.734h1.262a1.111 1.111 0 0 0 1.111-1.111v-2.342a1.111 1.111 0 0 0-1.11-1.111h-4.716a1.111 1.111 0 0 0-1.111 1.11v2.343a1.111 1.111 0 0 0 1.111 1.111h1.992v5.805h-1.286a.534.534 0 0 1-.534-.533v-2.827a.736.736 0 1 0-1.471 0v2.885a1.946 1.946 0 0 0 1.946 1.947h5.376a.736.736 0 0 0 0-1.472zm-5.094-6.992a.488.488 0 0 1-.488-.488v-1.215a.488.488 0 0 1 .488-.488h2.949a.488.488 0 0 1 .488.488v1.215a.488.488 0 0 1-.488.488z" transform="translate(-327.77 -98.373)"/><path d="M385.005 98.376a113.767 113.767 0 0 0-57.235 15.736l14.786 5.152a133.999 133.999 0 0 1 63.79-18.97 110.402 110.402 0 0 0-21.34-1.918z" transform="translate(-327.77 -98.373)" fill="#0069b1"/><path d="M355.21 129.678a128.804 128.804 0 0 1 50.367-27.74 131.71 131.71 0 0 0-64.427 22.841l14.06 4.899" transform="translate(-327.77 -98.373)" fill="#4bc1ef"/><path d="M355.929 135.799l13.851 4.826a89.261 89.261 0 0 1 32.205-35.919 96.73 96.73 0 0 0-46.056 31.093" transform="translate(-327.77 -98.373)" fill="#ffbc45"/><path class="cls-1" d="M416.149 135.93v-.479h2.839v.478h-.422v3.907l.59-.113v.506l-.59.113v1.349h-.478v-1.265l-1.911.365-.084-.534a1.835 1.835 0 0 1 .253-.056 1.24 1.24 0 0 1 .225-.028v-4.244zm.927 0v1.04h1.012v-1.04zm0 1.49v1.04h1.012v-1.04zm0 2.67l.59-.085.422-.084v-1.012h-1.012zm2.08-3.12v-.507h1.8q.28-.449.758-1.32-.281.534.085-.141l.506.225q-.394.674-.788 1.236h1.125v.506h-1.546v1.265h1.77v.506h-1.742a3.342 3.342 0 0 0 1.799 2.389q-.197.253-.366.506a3.63 3.63 0 0 1-1.714-2.277 3.77 3.77 0 0 1-1.743 2.333.317.317 0 0 1-.056-.084q-.197-.253-.31-.394a3.193 3.193 0 0 0 1.744-2.473h-1.518v-.506h1.574v-1.265zm.928-.62a9.924 9.924 0 0 0-.703-1.095l.478-.225q.084.113.31.45.308.45.421.618zM425.452 136.491v-.478h1.096v-1.011h.506v1.011h.984v.478h-.984v.731l.225-.197q.421.337.815.703l-.337.337q-.226-.224-.59-.534l-.112-.112v1.771h-.506v-1.911a6.494 6.494 0 0 1-1.012 1.545 1.474 1.474 0 0 0-.113-.28 1.093 1.093 0 0 0-.112-.282 5.848 5.848 0 0 0 1.18-1.77zm.394 4.75a2.967 2.967 0 0 0-.506-.225 6.707 6.707 0 0 0 .646-1.461l.506.168a10.562 10.562 0 0 1-.646 1.518zm2.192.281q-.984 0-.984-.843v-1.152h.562v1.04q-.028.477.59.45h1.153a.55.55 0 0 0 .646-.422 1.177 1.177 0 0 1 .028-.197q.028-.224.057-.393.14.057.421.168a.81.81 0 0 0 .14.029 5.9 5.9 0 0 1-.168.674.917.917 0 0 1-1.012.647zm.984-1.068a9.032 9.032 0 0 0-.787-.9l.365-.308q.309.28.843.871zm-.647-1.405v-3.766h3.204v3.766zm.534-3.345v.703h2.136v-.703zm0 1.124v.675h2.136v-.675zm0 1.068v.731h2.136v-.73zm2.726 3.148q-.478-.758-.843-1.236l.45-.253q.478.646.871 1.265zM434.558 136.547v-.45h1.18q-.168-.533-.365-1.04l.535-.112a3.298 3.298 0 0 0 .112.337l.225.675-.45.14h1.124v.45h-1.237c0 .132-.01.32-.028.563v.506h1.209q0 1.349-.057 2.866 0 .984-.843.984h-.533a3.077 3.077 0 0 0-.112-.534 4.151 4.151 0 0 0 .505.028q.478.056.478-.506.057-1.208.056-2.36h-.73v.28a5.73 5.73 0 0 1-.787 3.233 2.528 2.528 0 0 0-.196-.169 1.64 1.64 0 0 0-.225-.197 4.8 4.8 0 0 0 .702-2.838q.028-.31.028-.928.028-.59.029-.927zm2.895.254a1.12 1.12 0 0 0-.197-.141.837.837 0 0 0-.224-.14 5.939 5.939 0 0 0 .983-1.575l.534.113q-.168.31-.309.562h3.008v.478h-3.289a5.06 5.06 0 0 1-.506.702zm-.028 4.918a.316.316 0 0 1-.056-.084 3.161 3.161 0 0 0-.253-.31 6.687 6.687 0 0 0 1.433-.843l.338.338q-.9.59-1.462.899zm-.225-4.328v-.422h.619v-.478h.533v.478h1.687v-.478h.506v.478h.618v.422h-.618v2.53h.73v.45h-4.13v-.45h.674v-2.53zm1.153 0v.59h1.686v-.59zm0 .983v.59h1.686v-.59zm0 .956v.59h1.686v-.59zm2.585 2.36a15.342 15.342 0 0 0-1.377-.87l.31-.338q.814.45 1.377.815zM443.749 136.041v-.562h6.69v.562h-3.345v5.594h-.647v-5.594zm5.902 3.373q-.73-.477-2.023-1.264-.31-.197-.478-.31l.365-.45q.169.113.534.31 1.321.73 1.996 1.152zM453.333 136.35v-.505h1.995a5.434 5.434 0 0 0 .338-.9l.646.057-.337.843h3.288v.506h-3.485a2.203 2.203 0 0 1-.112.309 4.828 4.828 0 0 0-.281.646h4.3v.506h-4.525a4.981 4.981 0 0 0-.225.45q-.14.281-.224.422h4.216v.562l-1.856 1.518 1.125.45-.338.506q-1.04-.506-3.569-1.518a2.171 2.171 0 0 0-.253-.113l.309-.477q1.377.562 2.136.9l1.658-1.322h-4.075v-.534q.196-.337.45-.843h-1.602v-.506h1.827l.253-.59q.084-.225.14-.365zM462.102 141.27v-.507h2.164v-5.677h.562v5.678h1.265v-5.678h.562v5.678h2.193v.505zm1.265-1.856q-.225-.73-.759-2.164l-.253-.674.506-.17q.253.62.76 1.997.224.562.308.814zm4.103 0l-.534-.224q.646-1.406 1.153-2.783l.534.197q-.563 1.462-1.153 2.81zM471.742 141.157v-5.678h.674v5.678zM479.921 136.041h-1.995v5.116h-.647v-5.116h-1.995v-.533h4.637zM482.675 141.663a4.726 4.726 0 0 0-.393-.366 4.655 4.655 0 0 0 .45-2.557v-3.43h1.995v5.566q.028.646-.646.674a7.244 7.244 0 0 1-.647.028 2.596 2.596 0 0 0-.056-.506h.506q.337.028.337-.28v-1.462h-.984a4.09 4.09 0 0 1-.562 2.333zm.562-5.874v1.293h.984v-1.293zm0 3.035v.056h.984v-1.32h-.984zm5.565 2.783a7.65 7.65 0 0 1-1.405-.9 13.53 13.53 0 0 1-1.18.9l-.338-.45v.534h-.534v-6.324h3.289c0 .131-.01.3-.028.506a4 4 0 0 1-.029.534q-.028.9-.983.843-.422.028-.927.028a1.71 1.71 0 0 0-.085-.478h.815q.675.057.647-.45a3.368 3.368 0 0 0 .055-.505h-2.22v1.995h2.811v.506a5.668 5.668 0 0 1-.956 1.967 6.055 6.055 0 0 0 1.378.815q-.17.254-.31.479zm-2.923-.478a5.892 5.892 0 0 0 1.153-.815 6.439 6.439 0 0 1-.872-1.94l.197-.056h-.478zm2.305-2.81h-1.546a4.717 4.717 0 0 0 .759 1.573 5.548 5.548 0 0 0 .787-1.574zM491.669 138.6a2.695 2.695 0 0 1-.084-.198 1.303 1.303 0 0 1-.14-.309 14.986 14.986 0 0 0 2.894-.646 5.544 5.544 0 0 1-1.265-1.068q-.505.45-1.096.927l-.224-.224a2.8 2.8 0 0 0-.17-.197 8.063 8.063 0 0 0 2.024-1.94l.59.113a2.596 2.596 0 0 1-.393.506h3.598v.534a8.834 8.834 0 0 1-1.827 1.377 11.403 11.403 0 0 0 2.698.478 2.089 2.089 0 0 1-.113.253 1.855 1.855 0 0 1-.14.28 9.584 9.584 0 0 1-3.092-.73 13.903 13.903 0 0 1-3.26.843zm3.232 2.978a3.562 3.562 0 0 0-.112-.59q.393.028 1.152.029.787.056.815-.703a5.912 5.912 0 0 1 .057-.843h-2.361q-.17 1.518-2.586 2.276-.113-.197-.338-.534 2.108-.533 2.333-1.742h-1.883v-.506h1.996a3.676 3.676 0 0 0 .056-.703h.59a1.278 1.278 0 0 1-.028.225q-.028.31-.056.478h2.894q-.027.253-.056.787a4.518 4.518 0 0 0-.056.59 1.105 1.105 0 0 1-1.32 1.208q-.394.028-1.097.028zm1.771-5.537h-3.204a5.398 5.398 0 0 0 1.49 1.153 6.716 6.716 0 0 0 1.714-1.153zM500.69 136.182v-.478h3.177a2.977 2.977 0 0 1-.14-.365q-.057-.196-.084-.281l.59-.113q.169.422.28.76h2.924v.477zm.45 5.509v-4.525h1.687q-.14-.197-.534-.787l.506-.169a8.887 8.887 0 0 1 .619.843l-.422.113h1.602a4.29 4.29 0 0 1 .281-.394q.253-.365.365-.562l.534.169q-.252.394-.562.787h1.715v3.597q.056.787-.843.787h-.9a3.035 3.035 0 0 0-.112-.534q.337.028.843.029.506.027.478-.366v-3.035h-4.694v4.047zm.985-2.502a2.209 2.209 0 0 0-.31-.393 9.968 9.968 0 0 0 1.49-1.068l.366.337q-.76.59-1.547 1.125zm.59 1.574v-1.91h2.698v1.91zm2.192-.45v-1.011h-1.714v1.012zm1.096-1.152q-.703-.533-1.574-1.068l.31-.365q.14.084.365.253a10.274 10.274 0 0 1 1.18.759z" transform="translate(-327.77 -98.373)"/></svg>